<svg xmlns="http://www.w3.org/2000/svg" xmlns:xlink="http://www.w3.org/1999/xlink" width="152" zoomAndPan="magnify" viewBox="0 0 114 78.749999" height="105" preserveAspectRatio="xMidYMid meet" version="1.0"><defs><clipPath id="966a8719d5"><path d="M 27.050781 1.871094 L 86.859375 1.871094 L 86.859375 62 L 27.050781 62 Z M 27.050781 1.871094 " clip-rule="nonzero"/></clipPath><clipPath id="f22f06fde1"><path d="M 27.050781 50 L 86.859375 50 L 86.859375 62 L 27.050781 62 Z M 27.050781 50 " clip-rule="nonzero"/></clipPath><clipPath id="2e8a722084"><path d="M 42 46 L 72 46 L 72 76.636719 L 42 76.636719 Z M 42 46 " clip-rule="nonzero"/></clipPath></defs><g clip-path="url(#966a8719d5)"><path fill="#fe4646" d="M 31.605469 1.871094 L 82.296875 1.871094 C 82.597656 1.871094 82.890625 1.898438 83.183594 1.957031 C 83.476562 2.015625 83.761719 2.101562 84.039062 2.214844 C 84.3125 2.332031 84.574219 2.472656 84.824219 2.636719 C 85.070312 2.804688 85.300781 2.992188 85.511719 3.203125 C 85.722656 3.414062 85.910156 3.644531 86.078125 3.894531 C 86.242188 4.140625 86.382812 4.402344 86.496094 4.679688 C 86.613281 4.957031 86.699219 5.242188 86.757812 5.535156 C 86.816406 5.828125 86.84375 6.125 86.84375 6.421875 L 86.84375 57.191406 C 86.84375 57.488281 86.816406 57.785156 86.757812 58.078125 C 86.699219 58.371094 86.613281 58.65625 86.496094 58.933594 C 86.382812 59.207031 86.242188 59.472656 86.078125 59.71875 C 85.910156 59.96875 85.722656 60.199219 85.511719 60.410156 C 85.300781 60.621094 85.070312 60.808594 84.824219 60.976562 C 84.574219 61.140625 84.3125 61.28125 84.039062 61.394531 C 83.761719 61.511719 83.476562 61.597656 83.183594 61.65625 C 82.890625 61.714844 82.597656 61.742188 82.296875 61.742188 L 31.605469 61.742188 C 31.308594 61.742188 31.011719 61.714844 30.71875 61.65625 C 30.425781 61.597656 30.144531 61.511719 29.867188 61.394531 C 29.59375 61.28125 29.328125 61.140625 29.082031 60.976562 C 28.832031 60.808594 28.605469 60.621094 28.394531 60.410156 C 28.183594 60.199219 27.992188 59.96875 27.828125 59.71875 C 27.660156 59.472656 27.523438 59.207031 27.40625 58.933594 C 27.292969 58.65625 27.207031 58.371094 27.148438 58.078125 C 27.089844 57.785156 27.0625 57.488281 27.0625 57.191406 L 27.0625 6.421875 C 27.0625 6.125 27.089844 5.828125 27.148438 5.535156 C 27.207031 5.242188 27.292969 4.957031 27.40625 4.679688 C 27.523438 4.402344 27.660156 4.140625 27.828125 3.894531 C 27.992188 3.644531 28.183594 3.414062 28.394531 3.203125 C 28.605469 2.992188 28.832031 2.804688 29.082031 2.636719 C 29.328125 2.472656 29.59375 2.332031 29.867188 2.214844 C 30.144531 2.101562 30.425781 2.015625 30.71875 1.957031 C 31.011719 1.898438 31.308594 1.871094 31.605469 1.871094 Z M 31.605469 1.871094 " fill-opacity="1" fill-rule="nonzero"/></g><g clip-path="url(#f22f06fde1)"><path fill="#cc3232" d="M 82.09375 55.597656 L 31.8125 55.597656 C 31.5 55.597656 31.191406 55.566406 30.886719 55.503906 C 30.578125 55.445312 30.28125 55.355469 29.992188 55.234375 C 29.707031 55.113281 29.433594 54.96875 29.171875 54.792969 C 28.914062 54.621094 28.671875 54.425781 28.453125 54.203125 C 28.230469 53.980469 28.035156 53.742188 27.863281 53.480469 C 27.6875 53.222656 27.542969 52.949219 27.421875 52.660156 C 27.304688 52.371094 27.214844 52.074219 27.152344 51.765625 C 27.089844 51.460938 27.0625 51.152344 27.0625 50.839844 L 27.0625 56.984375 C 27.0625 57.296875 27.089844 57.605469 27.152344 57.914062 C 27.214844 58.21875 27.304688 58.515625 27.421875 58.804688 C 27.542969 59.09375 27.6875 59.367188 27.863281 59.628906 C 28.035156 59.886719 28.230469 60.128906 28.453125 60.347656 C 28.671875 60.570312 28.914062 60.765625 29.171875 60.941406 C 29.433594 61.113281 29.707031 61.261719 29.992188 61.378906 C 30.28125 61.5 30.578125 61.589844 30.886719 61.652344 C 31.191406 61.710938 31.5 61.742188 31.8125 61.742188 L 82.09375 61.742188 C 82.40625 61.742188 82.714844 61.710938 83.019531 61.652344 C 83.324219 61.589844 83.621094 61.5 83.910156 61.378906 C 84.199219 61.261719 84.472656 61.113281 84.730469 60.941406 C 84.992188 60.765625 85.230469 60.570312 85.453125 60.347656 C 85.671875 60.128906 85.871094 59.886719 86.042969 59.628906 C 86.214844 59.367188 86.363281 59.09375 86.480469 58.804688 C 86.601562 58.515625 86.691406 58.21875 86.753906 57.914062 C 86.8125 57.605469 86.84375 57.296875 86.84375 56.984375 L 86.84375 50.839844 C 86.84375 51.152344 86.8125 51.460938 86.753906 51.765625 C 86.691406 52.074219 86.601562 52.371094 86.480469 52.660156 C 86.363281 52.949219 86.214844 53.222656 86.042969 53.480469 C 85.871094 53.742188 85.671875 53.980469 85.453125 54.203125 C 85.230469 54.425781 84.992188 54.621094 84.730469 54.796875 C 84.472656 54.96875 84.199219 55.113281 83.910156 55.234375 C 83.621094 55.355469 83.324219 55.445312 83.019531 55.503906 C 82.714844 55.566406 82.40625 55.597656 82.09375 55.597656 Z M 82.09375 55.597656 " fill-opacity="1" fill-rule="nonzero"/></g><path fill="#cc3232" d="M 64.445312 15.542969 L 49.460938 15.542969 C 49.109375 15.542969 48.773438 15.476562 48.453125 15.34375 C 48.128906 15.207031 47.84375 15.015625 47.597656 14.769531 C 47.347656 14.523438 47.160156 14.238281 47.023438 13.914062 C 46.890625 13.589844 46.824219 13.253906 46.824219 12.902344 C 46.824219 12.554688 46.890625 12.214844 47.023438 11.894531 C 47.160156 11.570312 47.347656 11.285156 47.597656 11.035156 C 47.84375 10.789062 48.128906 10.597656 48.453125 10.464844 C 48.773438 10.328125 49.109375 10.261719 49.460938 10.261719 L 64.445312 10.261719 C 64.792969 10.261719 65.132812 10.328125 65.453125 10.464844 C 65.777344 10.597656 66.0625 10.789062 66.308594 11.035156 C 66.554688 11.285156 66.746094 11.570312 66.878906 11.894531 C 67.015625 12.214844 67.082031 12.554688 67.082031 12.902344 C 67.082031 13.253906 67.015625 13.589844 66.878906 13.914062 C 66.746094 14.238281 66.554688 14.523438 66.308594 14.769531 C 66.0625 15.015625 65.777344 15.207031 65.453125 15.34375 C 65.132812 15.476562 64.792969 15.542969 64.445312 15.542969 Z M 64.445312 15.542969 " fill-opacity="1" fill-rule="nonzero"/><path fill="#ffffff" d="M 43.722656 20.378906 L 37.054688 20.378906 C 36.886719 20.378906 36.722656 20.414062 36.570312 20.476562 C 36.414062 20.542969 36.277344 20.632812 36.160156 20.753906 C 36.039062 20.871094 35.949219 21.007812 35.882812 21.164062 C 35.820312 21.316406 35.789062 21.480469 35.789062 21.648438 L 35.789062 32.429688 C 35.789062 32.597656 35.820312 32.757812 35.882812 32.914062 C 35.949219 33.070312 36.039062 33.207031 36.160156 33.324219 C 36.277344 33.445312 36.414062 33.535156 36.570312 33.597656 C 36.722656 33.664062 36.886719 33.695312 37.054688 33.695312 L 37.960938 33.695312 C 38.128906 33.695312 38.292969 33.664062 38.445312 33.597656 C 38.601562 33.535156 38.738281 33.445312 38.859375 33.324219 C 38.976562 33.207031 39.066406 33.070312 39.132812 32.914062 C 39.195312 32.757812 39.226562 32.597656 39.226562 32.429688 L 39.226562 28.652344 L 42.984375 28.652344 C 43.148438 28.652344 43.3125 28.621094 43.46875 28.558594 C 43.621094 28.492188 43.757812 28.402344 43.878906 28.28125 C 43.996094 28.164062 44.085938 28.027344 44.152344 27.871094 C 44.214844 27.714844 44.246094 27.554688 44.246094 27.386719 L 44.246094 26.617188 C 44.246094 26.449219 44.214844 26.285156 44.152344 26.132812 C 44.085938 25.976562 43.996094 25.839844 43.878906 25.71875 C 43.757812 25.601562 43.621094 25.511719 43.464844 25.445312 C 43.3125 25.382812 43.148438 25.347656 42.984375 25.347656 L 39.226562 25.347656 L 39.226562 23.683594 L 43.722656 23.683594 C 43.890625 23.683594 44.050781 23.652344 44.207031 23.589844 C 44.359375 23.523438 44.496094 23.433594 44.617188 23.3125 C 44.734375 23.195312 44.828125 23.058594 44.890625 22.902344 C 44.953125 22.746094 44.988281 22.585938 44.988281 22.417969 L 44.988281 21.648438 C 44.988281 21.480469 44.953125 21.316406 44.890625 21.164062 C 44.828125 21.007812 44.734375 20.871094 44.617188 20.75 C 44.496094 20.632812 44.359375 20.542969 44.207031 20.476562 C 44.050781 20.414062 43.890625 20.378906 43.722656 20.378906 Z M 43.722656 20.378906 " fill-opacity="1" fill-rule="nonzero"/><path fill="#ffffff" d="M 54.363281 28.261719 C 54.691406 28.023438 54.976562 27.742188 55.222656 27.417969 C 55.8125 26.652344 56.101562 25.789062 56.089844 24.820312 C 56.089844 23.460938 55.601562 22.320312 54.679688 21.523438 C 53.800781 20.765625 52.617188 20.378906 51.164062 20.378906 L 47.667969 20.378906 C 47.5 20.378906 47.339844 20.414062 47.183594 20.476562 C 47.027344 20.542969 46.890625 20.632812 46.773438 20.75 C 46.652344 20.871094 46.5625 21.007812 46.5 21.164062 C 46.433594 21.316406 46.402344 21.480469 46.402344 21.648438 L 46.402344 32.429688 C 46.402344 32.597656 46.433594 32.757812 46.5 32.914062 C 46.5625 33.070312 46.652344 33.207031 46.773438 33.324219 C 46.890625 33.445312 47.027344 33.535156 47.183594 33.597656 C 47.339844 33.664062 47.5 33.695312 47.667969 33.695312 L 48.585938 33.695312 C 48.753906 33.695312 48.914062 33.664062 49.070312 33.597656 C 49.222656 33.535156 49.359375 33.445312 49.480469 33.324219 C 49.597656 33.207031 49.6875 33.070312 49.753906 32.914062 C 49.816406 32.757812 49.847656 32.597656 49.847656 32.429688 L 49.847656 29.203125 L 50.984375 29.203125 L 53.21875 33.066406 C 53.464844 33.484375 53.828125 33.695312 54.3125 33.695312 L 55.28125 33.695312 C 55.449219 33.695312 55.613281 33.664062 55.765625 33.601562 C 55.921875 33.535156 56.058594 33.445312 56.175781 33.324219 C 56.296875 33.207031 56.386719 33.070312 56.453125 32.914062 C 56.515625 32.757812 56.546875 32.597656 56.546875 32.429688 L 56.546875 32.332031 C 56.546875 32.101562 56.488281 31.890625 56.375 31.691406 Z M 49.847656 25.898438 L 49.847656 23.6875 L 51.148438 23.6875 C 51.703125 23.6875 52.109375 23.792969 52.351562 24.007812 C 52.488281 24.121094 52.640625 24.320312 52.640625 24.820312 C 52.640625 25.253906 52.492188 25.449219 52.347656 25.585938 C 52.207031 25.71875 51.949219 25.898438 51.371094 25.898438 Z M 49.847656 25.898438 " fill-opacity="1" fill-rule="nonzero"/><path fill="#ffffff" d="M 66.117188 30.390625 L 61.597656 30.390625 L 61.597656 28.527344 L 65.367188 28.527344 C 65.535156 28.527344 65.695312 28.496094 65.851562 28.429688 C 66.003906 28.367188 66.140625 28.273438 66.261719 28.15625 C 66.378906 28.039062 66.46875 27.902344 66.535156 27.746094 C 66.597656 27.589844 66.632812 27.429688 66.632812 27.261719 L 66.632812 26.492188 C 66.632812 26.324219 66.597656 26.160156 66.535156 26.003906 C 66.46875 25.851562 66.378906 25.714844 66.261719 25.59375 C 66.140625 25.476562 66.003906 25.382812 65.851562 25.320312 C 65.695312 25.253906 65.535156 25.222656 65.367188 25.222656 L 61.597656 25.222656 L 61.597656 23.683594 L 66.082031 23.683594 C 66.25 23.683594 66.410156 23.652344 66.566406 23.589844 C 66.722656 23.523438 66.859375 23.433594 66.976562 23.3125 C 67.09375 23.195312 67.1875 23.058594 67.25 22.902344 C 67.316406 22.746094 67.347656 22.585938 67.347656 22.417969 L 67.347656 21.648438 C 67.347656 21.480469 67.316406 21.316406 67.25 21.164062 C 67.1875 21.007812 67.09375 20.871094 66.976562 20.75 C 66.859375 20.632812 66.722656 20.542969 66.566406 20.476562 C 66.410156 20.414062 66.25 20.378906 66.082031 20.378906 L 59.421875 20.378906 C 59.253906 20.378906 59.09375 20.414062 58.9375 20.476562 C 58.78125 20.542969 58.644531 20.632812 58.527344 20.75 C 58.40625 20.871094 58.316406 21.007812 58.253906 21.164062 C 58.1875 21.316406 58.15625 21.480469 58.15625 21.648438 L 58.15625 32.429688 C 58.15625 32.597656 58.1875 32.757812 58.253906 32.914062 C 58.316406 33.070312 58.40625 33.207031 58.527344 33.324219 C 58.644531 33.445312 58.78125 33.535156 58.9375 33.597656 C 59.09375 33.664062 59.253906 33.695312 59.421875 33.695312 L 66.117188 33.695312 C 66.285156 33.695312 66.449219 33.664062 66.601562 33.597656 C 66.757812 33.535156 66.894531 33.445312 67.015625 33.324219 C 67.132812 33.207031 67.222656 33.070312 67.289062 32.914062 C 67.351562 32.757812 67.382812 32.597656 67.382812 32.429688 L 67.382812 31.660156 C 67.382812 31.492188 67.351562 31.328125 67.289062 31.171875 C 67.222656 31.019531 67.132812 30.882812 67.015625 30.761719 C 66.894531 30.644531 66.757812 30.550781 66.601562 30.488281 C 66.449219 30.421875 66.285156 30.390625 66.117188 30.390625 Z M 66.117188 30.390625 " fill-opacity="1" fill-rule="nonzero"/><path fill="#ffffff" d="M 76.851562 30.390625 L 72.328125 30.390625 L 72.328125 28.527344 L 76.097656 28.527344 C 76.265625 28.527344 76.425781 28.496094 76.582031 28.429688 C 76.734375 28.367188 76.875 28.273438 76.992188 28.15625 C 77.109375 28.039062 77.203125 27.902344 77.265625 27.746094 C 77.332031 27.589844 77.363281 27.429688 77.363281 27.261719 L 77.363281 26.492188 C 77.363281 26.324219 77.332031 26.160156 77.265625 26.003906 C 77.203125 25.851562 77.109375 25.714844 76.992188 25.59375 C 76.875 25.476562 76.734375 25.382812 76.582031 25.320312 C 76.425781 25.253906 76.265625 25.222656 76.097656 25.222656 L 72.328125 25.222656 L 72.328125 23.683594 L 76.8125 23.683594 C 76.980469 23.683594 77.144531 23.652344 77.296875 23.589844 C 77.453125 23.523438 77.589844 23.433594 77.710938 23.3125 C 77.828125 23.195312 77.917969 23.058594 77.984375 22.902344 C 78.046875 22.746094 78.078125 22.585938 78.078125 22.417969 L 78.078125 21.648438 C 78.078125 21.480469 78.046875 21.316406 77.984375 21.164062 C 77.917969 21.007812 77.828125 20.871094 77.707031 20.75 C 77.589844 20.632812 77.453125 20.542969 77.296875 20.476562 C 77.144531 20.414062 76.980469 20.378906 76.8125 20.378906 L 70.152344 20.378906 C 69.984375 20.378906 69.824219 20.414062 69.667969 20.476562 C 69.515625 20.542969 69.378906 20.632812 69.257812 20.753906 C 69.140625 20.871094 69.046875 21.007812 68.984375 21.164062 C 68.921875 21.316406 68.886719 21.480469 68.886719 21.648438 L 68.886719 32.429688 C 68.886719 32.597656 68.921875 32.757812 68.984375 32.914062 C 69.046875 33.070312 69.140625 33.207031 69.257812 33.324219 C 69.378906 33.445312 69.515625 33.535156 69.667969 33.597656 C 69.824219 33.664062 69.984375 33.695312 70.152344 33.695312 L 76.851562 33.695312 C 77.019531 33.695312 77.179688 33.664062 77.335938 33.597656 C 77.492188 33.535156 77.628906 33.445312 77.746094 33.324219 C 77.863281 33.207031 77.957031 33.070312 78.019531 32.914062 C 78.085938 32.757812 78.117188 32.597656 78.117188 32.429688 L 78.117188 31.660156 C 78.117188 31.492188 78.085938 31.328125 78.019531 31.171875 C 77.957031 31.019531 77.863281 30.882812 77.746094 30.761719 C 77.628906 30.644531 77.492188 30.550781 77.335938 30.488281 C 77.179688 30.421875 77.019531 30.390625 76.851562 30.390625 Z M 76.851562 30.390625 " fill-opacity="1" fill-rule="nonzero"/><path fill="#ffffff" d="M 39.710938 39.632812 C 39.417969 39.464844 39.011719 39.3125 38.46875 39.164062 C 37.933594 39.015625 37.679688 38.871094 37.558594 38.777344 C 37.453125 38.703125 37.402344 38.601562 37.40625 38.472656 C 37.402344 38.320312 37.460938 38.203125 37.589844 38.121094 C 37.753906 37.996094 37.996094 37.933594 38.308594 37.933594 C 38.625 37.933594 38.859375 38.007812 39.027344 38.15625 C 39.1875 38.304688 39.261719 38.488281 39.25 38.707031 C 39.25 38.839844 39.296875 38.957031 39.390625 39.050781 C 39.488281 39.144531 39.601562 39.195312 39.738281 39.195312 L 40.207031 39.195312 C 40.34375 39.195312 40.457031 39.144531 40.550781 39.050781 C 40.648438 38.957031 40.695312 38.839844 40.695312 38.707031 C 40.699219 38.304688 40.59375 37.9375 40.378906 37.597656 C 40.164062 37.257812 39.871094 37 39.507812 36.824219 C 39.128906 36.644531 38.726562 36.558594 38.308594 36.5625 C 37.660156 36.5625 37.109375 36.730469 36.675781 37.058594 C 36.195312 37.410156 35.957031 37.882812 35.964844 38.480469 C 35.964844 39.074219 36.226562 39.578125 36.726562 39.933594 C 37.039062 40.160156 37.5 40.355469 38.132812 40.535156 C 38.796875 40.722656 39.046875 40.875 39.136719 40.953125 C 39.210938 41.011719 39.285156 41.101562 39.285156 41.304688 C 39.292969 41.464844 39.226562 41.585938 39.09375 41.667969 C 38.917969 41.796875 38.667969 41.863281 38.34375 41.863281 C 37.972656 41.863281 37.679688 41.78125 37.476562 41.625 C 37.296875 41.488281 37.214844 41.308594 37.230469 41.085938 C 37.230469 40.949219 37.179688 40.835938 37.085938 40.742188 C 36.992188 40.644531 36.875 40.597656 36.742188 40.597656 L 36.273438 40.597656 C 36.140625 40.597656 36.027344 40.644531 35.929688 40.742188 C 35.835938 40.835938 35.789062 40.949219 35.789062 41.085938 C 35.78125 41.496094 35.894531 41.875 36.125 42.21875 C 36.367188 42.570312 36.683594 42.824219 37.078125 42.984375 C 37.480469 43.152344 37.902344 43.234375 38.34375 43.230469 C 39.019531 43.230469 39.578125 43.066406 40.011719 42.738281 C 40.5 42.382812 40.738281 41.902344 40.730469 41.296875 C 40.734375 40.945312 40.644531 40.617188 40.460938 40.316406 C 40.265625 40.027344 40.015625 39.796875 39.710938 39.632812 Z M 39.710938 39.632812 " fill-opacity="1" fill-rule="nonzero"/><path fill="#ffffff" d="M 46.4375 36.640625 L 45.96875 36.640625 C 45.832031 36.640625 45.71875 36.6875 45.625 36.78125 C 45.527344 36.878906 45.480469 36.992188 45.480469 37.125 L 45.480469 39.128906 L 43.292969 39.128906 L 43.292969 37.125 C 43.292969 36.992188 43.246094 36.878906 43.148438 36.78125 C 43.054688 36.6875 42.941406 36.640625 42.804688 36.640625 L 42.339844 36.640625 C 42.203125 36.640625 42.089844 36.6875 41.996094 36.78125 C 41.898438 36.878906 41.851562 36.992188 41.851562 37.125 L 41.851562 42.667969 C 41.851562 42.804688 41.898438 42.917969 41.996094 43.011719 C 42.089844 43.109375 42.203125 43.15625 42.339844 43.15625 L 42.804688 43.15625 C 42.941406 43.15625 43.054688 43.109375 43.152344 43.011719 C 43.246094 42.917969 43.292969 42.804688 43.292969 42.667969 L 43.292969 40.5 L 45.480469 40.5 L 45.480469 42.667969 C 45.480469 42.804688 45.53125 42.917969 45.625 43.011719 C 45.71875 43.109375 45.835938 43.15625 45.96875 43.15625 L 46.441406 43.15625 C 46.574219 43.15625 46.6875 43.109375 46.785156 43.011719 C 46.878906 42.917969 46.925781 42.804688 46.925781 42.667969 L 46.925781 37.125 C 46.925781 36.992188 46.878906 36.875 46.785156 36.78125 C 46.6875 36.6875 46.574219 36.640625 46.4375 36.640625 Z M 46.4375 36.640625 " fill-opacity="1" fill-rule="nonzero"/><path fill="#ffffff" d="M 49.039062 36.640625 L 49.503906 36.640625 C 49.640625 36.640625 49.753906 36.6875 49.851562 36.78125 C 49.945312 36.878906 49.992188 36.992188 49.992188 37.125 L 49.992188 42.667969 C 49.992188 42.804688 49.945312 42.917969 49.851562 43.011719 C 49.753906 43.109375 49.640625 43.15625 49.503906 43.15625 L 49.039062 43.15625 C 48.902344 43.15625 48.789062 43.109375 48.695312 43.011719 C 48.597656 42.917969 48.550781 42.804688 48.550781 42.667969 L 48.550781 37.125 C 48.550781 36.992188 48.597656 36.878906 48.695312 36.78125 C 48.789062 36.6875 48.902344 36.640625 49.039062 36.640625 Z M 49.039062 36.640625 " fill-opacity="1" fill-rule="nonzero"/><path fill="#ffffff" d="M 53.980469 36.640625 L 52.097656 36.640625 C 51.960938 36.640625 51.847656 36.6875 51.753906 36.78125 C 51.65625 36.878906 51.609375 36.992188 51.609375 37.125 L 51.609375 42.667969 C 51.609375 42.804688 51.65625 42.917969 51.753906 43.011719 C 51.847656 43.109375 51.960938 43.15625 52.097656 43.15625 L 52.5625 43.15625 C 52.699219 43.15625 52.8125 43.109375 52.90625 43.011719 C 53.003906 42.917969 53.050781 42.804688 53.050781 42.667969 L 53.050781 40.898438 L 53.96875 40.898438 C 54.695312 40.898438 55.273438 40.714844 55.683594 40.351562 C 56.113281 39.972656 56.328125 39.445312 56.328125 38.78125 C 56.328125 38.125 56.105469 37.59375 55.664062 37.203125 C 55.242188 36.828125 54.675781 36.640625 53.980469 36.640625 Z M 54.691406 39.332031 C 54.546875 39.460938 54.308594 39.527344 53.980469 39.527344 L 53.050781 39.527344 L 53.050781 38.007812 L 54.007812 38.007812 C 54.3125 38.011719 54.539062 38.085938 54.683594 38.222656 C 54.773438 38.308594 54.890625 38.457031 54.890625 38.789062 C 54.890625 39.113281 54.777344 39.253906 54.691406 39.332031 Z M 54.691406 39.332031 " fill-opacity="1" fill-rule="nonzero"/><path fill="#ffffff" d="M 59.863281 36.640625 L 57.976562 36.640625 C 57.84375 36.640625 57.730469 36.6875 57.632812 36.78125 C 57.539062 36.878906 57.492188 36.992188 57.492188 37.125 L 57.492188 42.667969 C 57.492188 42.804688 57.539062 42.917969 57.632812 43.011719 C 57.730469 43.109375 57.84375 43.15625 57.976562 43.15625 L 58.445312 43.15625 C 58.578125 43.15625 58.695312 43.109375 58.789062 43.011719 C 58.882812 42.917969 58.933594 42.804688 58.933594 42.667969 L 58.933594 40.898438 L 59.851562 40.898438 C 60.578125 40.898438 61.15625 40.714844 61.566406 40.351562 C 61.996094 39.972656 62.210938 39.445312 62.210938 38.78125 C 62.210938 38.125 61.988281 37.59375 61.546875 37.203125 C 61.125 36.828125 60.558594 36.640625 59.863281 36.640625 Z M 60.574219 39.332031 C 60.429688 39.460938 60.191406 39.527344 59.863281 39.527344 L 58.933594 39.527344 L 58.933594 38.007812 L 59.886719 38.007812 C 60.195312 38.011719 60.421875 38.085938 60.566406 38.222656 C 60.652344 38.308594 60.769531 38.457031 60.769531 38.789062 C 60.769531 39.113281 60.660156 39.253906 60.574219 39.332031 Z M 60.574219 39.332031 " fill-opacity="1" fill-rule="nonzero"/><path fill="#ffffff" d="M 63.960938 36.640625 L 64.429688 36.640625 C 64.566406 36.640625 64.679688 36.6875 64.773438 36.78125 C 64.871094 36.878906 64.917969 36.992188 64.917969 37.125 L 64.917969 42.667969 C 64.917969 42.804688 64.871094 42.917969 64.773438 43.011719 C 64.679688 43.109375 64.566406 43.15625 64.429688 43.15625 L 63.960938 43.15625 C 63.828125 43.15625 63.714844 43.109375 63.617188 43.011719 C 63.523438 42.917969 63.476562 42.804688 63.476562 42.667969 L 63.476562 37.125 C 63.476562 36.992188 63.523438 36.878906 63.617188 36.78125 C 63.714844 36.6875 63.828125 36.640625 63.960938 36.640625 Z M 63.960938 36.640625 " fill-opacity="1" fill-rule="nonzero"/><path fill="#ffffff" d="M 71.140625 36.640625 L 70.675781 36.640625 C 70.542969 36.640625 70.429688 36.6875 70.332031 36.78125 C 70.238281 36.878906 70.191406 36.992188 70.191406 37.125 L 70.191406 40.273438 L 67.894531 36.855469 C 67.800781 36.710938 67.664062 36.640625 67.492188 36.640625 L 67.019531 36.640625 C 66.886719 36.640625 66.773438 36.6875 66.675781 36.78125 C 66.582031 36.878906 66.535156 36.992188 66.535156 37.125 L 66.535156 42.667969 C 66.535156 42.804688 66.582031 42.917969 66.675781 43.011719 C 66.773438 43.109375 66.886719 43.15625 67.019531 43.15625 L 67.492188 43.15625 C 67.625 43.15625 67.742188 43.109375 67.835938 43.011719 C 67.929688 42.917969 67.980469 42.804688 67.980469 42.667969 L 67.980469 39.523438 L 70.269531 42.941406 C 70.367188 43.085938 70.5 43.15625 70.671875 43.15625 L 71.140625 43.15625 C 71.273438 43.15625 71.390625 43.109375 71.484375 43.011719 C 71.578125 42.917969 71.628906 42.804688 71.628906 42.667969 L 71.628906 37.125 C 71.628906 36.992188 71.578125 36.878906 71.484375 36.78125 C 71.390625 36.6875 71.273438 36.640625 71.140625 36.640625 Z M 71.140625 36.640625 " fill-opacity="1" fill-rule="nonzero"/><path fill="#ffffff" d="M 77.628906 39.550781 L 75.675781 39.550781 C 75.542969 39.550781 75.429688 39.597656 75.332031 39.695312 C 75.238281 39.789062 75.191406 39.902344 75.191406 40.039062 L 75.191406 40.433594 C 75.191406 40.570312 75.238281 40.683594 75.332031 40.777344 C 75.429688 40.875 75.542969 40.921875 75.675781 40.921875 L 76.675781 40.921875 L 76.675781 41.644531 C 76.636719 41.671875 76.59375 41.691406 76.550781 41.710938 C 76.277344 41.820312 76 41.871094 75.707031 41.863281 C 75.46875 41.867188 75.253906 41.804688 75.054688 41.675781 C 74.855469 41.539062 74.707031 41.359375 74.613281 41.132812 C 74.492188 40.835938 74.433594 40.53125 74.441406 40.210938 L 74.441406 39.554688 C 74.441406 39.003906 74.558594 38.585938 74.785156 38.308594 C 74.992188 38.050781 75.261719 37.933594 75.636719 37.933594 C 75.945312 37.933594 76.183594 38 76.359375 38.140625 C 76.527344 38.273438 76.628906 38.480469 76.679688 38.769531 C 76.699219 38.886719 76.753906 38.980469 76.84375 39.058594 C 76.9375 39.136719 77.039062 39.175781 77.160156 39.175781 L 77.625 39.175781 C 77.773438 39.175781 77.894531 39.117188 77.992188 39.007812 C 78.089844 38.898438 78.128906 38.769531 78.109375 38.625 C 78.027344 37.992188 77.761719 37.484375 77.320312 37.113281 C 76.882812 36.746094 76.316406 36.5625 75.632812 36.5625 C 74.832031 36.5625 74.183594 36.84375 73.703125 37.398438 C 73.238281 37.933594 73 38.652344 73 39.539062 L 73 40.242188 C 72.996094 40.773438 73.105469 41.28125 73.332031 41.761719 C 73.546875 42.21875 73.867188 42.582031 74.296875 42.847656 C 74.730469 43.109375 75.199219 43.238281 75.707031 43.230469 C 76.164062 43.238281 76.609375 43.160156 77.039062 43.007812 C 77.476562 42.84375 77.808594 42.601562 78.027344 42.289062 C 78.085938 42.207031 78.117188 42.113281 78.117188 42.007812 L 78.117188 40.039062 C 78.117188 39.902344 78.070312 39.789062 77.972656 39.695312 C 77.878906 39.597656 77.765625 39.550781 77.628906 39.550781 Z M 77.628906 39.550781 " fill-opacity="1" fill-rule="nonzero"/><g clip-path="url(#2e8a722084)"><path fill="#473c4c" d="M 71.816406 61.742188 C 71.816406 62.71875 71.722656 63.6875 71.53125 64.648438 C 71.339844 65.605469 71.058594 66.535156 70.6875 67.441406 C 70.3125 68.34375 69.855469 69.203125 69.3125 70.015625 C 68.769531 70.828125 68.152344 71.578125 67.464844 72.269531 C 66.773438 72.960938 66.023438 73.578125 65.210938 74.121094 C 64.398438 74.664062 63.542969 75.125 62.640625 75.496094 C 61.738281 75.871094 60.808594 76.152344 59.851562 76.34375 C 58.894531 76.535156 57.929688 76.628906 56.953125 76.628906 C 55.976562 76.628906 55.007812 76.535156 54.050781 76.34375 C 53.09375 76.152344 52.164062 75.871094 51.265625 75.496094 C 50.363281 75.125 49.503906 74.664062 48.695312 74.121094 C 47.882812 73.578125 47.132812 72.960938 46.441406 72.269531 C 45.75 71.578125 45.132812 70.828125 44.59375 70.015625 C 44.050781 69.203125 43.59375 68.34375 43.21875 67.441406 C 42.84375 66.535156 42.5625 65.605469 42.371094 64.648438 C 42.183594 63.6875 42.085938 62.71875 42.085938 61.742188 C 42.085938 60.765625 42.183594 59.796875 42.371094 58.839844 C 42.5625 57.878906 42.84375 56.949219 43.21875 56.046875 C 43.59375 55.140625 44.050781 54.285156 44.59375 53.472656 C 45.132812 52.660156 45.75 51.90625 46.441406 51.214844 C 47.132812 50.523438 47.882812 49.90625 48.695312 49.363281 C 49.503906 48.820312 50.363281 48.363281 51.265625 47.988281 C 52.164062 47.613281 53.09375 47.332031 54.050781 47.140625 C 55.007812 46.949219 55.976562 46.855469 56.953125 46.855469 C 57.929688 46.855469 58.894531 46.949219 59.851562 47.140625 C 60.808594 47.332031 61.738281 47.613281 62.640625 47.988281 C 63.542969 48.363281 64.398438 48.820312 65.210938 49.363281 C 66.023438 49.90625 66.773438 50.523438 67.464844 51.214844 C 68.152344 51.90625 68.769531 52.660156 69.3125 53.472656 C 69.855469 54.285156 70.3125 55.140625 70.6875 56.046875 C 71.058594 56.949219 71.339844 57.878906 71.53125 58.839844 C 71.722656 59.796875 71.816406 60.765625 71.816406 61.742188 Z M 71.816406 61.742188 " fill-opacity="1" fill-rule="nonzero"/></g><path fill="#31283b" d="M 69.257812 61.742188 C 69.257812 62.550781 69.179688 63.355469 69.023438 64.148438 C 68.867188 64.941406 68.632812 65.710938 68.324219 66.460938 C 68.011719 67.207031 67.632812 67.917969 67.1875 68.589844 C 66.738281 69.265625 66.226562 69.886719 65.65625 70.457031 C 65.082031 71.03125 64.460938 71.542969 63.789062 71.992188 C 63.117188 72.441406 62.410156 72.820312 61.664062 73.128906 C 60.914062 73.441406 60.144531 73.675781 59.351562 73.832031 C 58.5625 73.988281 57.761719 74.070312 56.953125 74.070312 C 56.144531 74.070312 55.34375 73.988281 54.550781 73.832031 C 53.757812 73.675781 52.988281 73.441406 52.242188 73.128906 C 51.496094 72.820312 50.785156 72.441406 50.113281 71.992188 C 49.441406 71.542969 48.820312 71.03125 48.25 70.457031 C 47.679688 69.886719 47.167969 69.265625 46.71875 68.589844 C 46.269531 67.917969 45.890625 67.207031 45.582031 66.460938 C 45.273438 65.710938 45.039062 64.941406 44.882812 64.148438 C 44.722656 63.355469 44.644531 62.550781 44.644531 61.742188 C 44.644531 60.933594 44.722656 60.132812 44.882812 59.339844 C 45.039062 58.542969 45.273438 57.773438 45.582031 57.027344 C 45.890625 56.277344 46.269531 55.566406 46.71875 54.894531 C 47.167969 54.222656 47.679688 53.597656 48.25 53.027344 C 48.820312 52.453125 49.441406 51.945312 50.113281 51.492188 C 50.785156 51.042969 51.496094 50.664062 52.242188 50.355469 C 52.988281 50.046875 53.757812 49.8125 54.550781 49.652344 C 55.34375 49.496094 56.144531 49.417969 56.953125 49.417969 C 57.761719 49.417969 58.5625 49.496094 59.351562 49.652344 C 60.144531 49.8125 60.914062 50.046875 61.664062 50.355469 C 62.410156 50.664062 63.117188 51.042969 63.789062 51.492188 C 64.460938 51.945312 65.082031 52.453125 65.65625 53.027344 C 66.226562 53.597656 66.738281 54.222656 67.1875 54.894531 C 67.632812 55.566406 68.011719 56.277344 68.324219 57.027344 C 68.632812 57.773438 68.867188 58.542969 69.023438 59.339844 C 69.179688 60.132812 69.257812 60.933594 69.257812 61.742188 Z M 69.257812 61.742188 " fill-opacity="1" fill-rule="nonzero"/><path fill="#ffffff" d="M 67.230469 61.742188 C 67.230469 62.417969 67.164062 63.089844 67.03125 63.75 C 66.902344 64.414062 66.707031 65.058594 66.449219 65.683594 C 66.1875 66.304688 65.871094 66.898438 65.496094 67.460938 C 65.121094 68.023438 64.695312 68.542969 64.21875 69.019531 C 63.742188 69.5 63.222656 69.925781 62.664062 70.300781 C 62.101562 70.675781 61.507812 70.992188 60.886719 71.253906 C 60.261719 71.511719 59.621094 71.707031 58.957031 71.839844 C 58.296875 71.96875 57.628906 72.035156 56.953125 72.035156 C 56.277344 72.035156 55.609375 71.96875 54.949219 71.839844 C 54.285156 71.707031 53.644531 71.511719 53.019531 71.253906 C 52.394531 70.992188 51.804688 70.675781 51.242188 70.300781 C 50.679688 69.925781 50.164062 69.5 49.683594 69.019531 C 49.207031 68.542969 48.78125 68.023438 48.40625 67.460938 C 48.03125 66.898438 47.714844 66.304688 47.457031 65.683594 C 47.199219 65.058594 47.003906 64.414062 46.871094 63.75 C 46.742188 63.089844 46.675781 62.417969 46.675781 61.742188 C 46.675781 61.066406 46.742188 60.398438 46.871094 59.734375 C 47.003906 59.070312 47.199219 58.429688 47.457031 57.804688 C 47.714844 57.179688 48.03125 56.585938 48.40625 56.023438 C 48.78125 55.460938 49.207031 54.941406 49.683594 54.464844 C 50.164062 53.988281 50.679688 53.558594 51.242188 53.183594 C 51.804688 52.808594 52.394531 52.492188 53.019531 52.234375 C 53.644531 51.972656 54.285156 51.777344 54.949219 51.648438 C 55.609375 51.515625 56.277344 51.449219 56.953125 51.449219 C 57.628906 51.449219 58.296875 51.515625 58.957031 51.648438 C 59.621094 51.777344 60.261719 51.972656 60.886719 52.234375 C 61.507812 52.492188 62.101562 52.808594 62.664062 53.183594 C 63.222656 53.558594 63.742188 53.988281 64.21875 54.464844 C 64.695312 54.941406 65.121094 55.460938 65.496094 56.023438 C 65.871094 56.585938 66.1875 57.179688 66.449219 57.804688 C 66.707031 58.429688 66.902344 59.070312 67.03125 59.734375 C 67.164062 60.398438 67.230469 61.066406 67.230469 61.742188 Z M 67.230469 61.742188 " fill-opacity="1" fill-rule="nonzero"/><path fill="#473c4c" d="M 55.679688 67.71875 C 55.132812 67.71875 54.664062 67.523438 54.273438 67.136719 L 50.386719 63.246094 C 50.203125 63.058594 50.0625 62.84375 49.960938 62.601562 C 49.859375 62.355469 49.8125 62.101562 49.8125 61.839844 C 49.8125 61.578125 49.863281 61.324219 49.964844 61.078125 C 50.066406 60.835938 50.207031 60.621094 50.394531 60.4375 C 50.578125 60.25 50.792969 60.105469 51.035156 60.003906 C 51.28125 59.902344 51.53125 59.851562 51.796875 59.851562 C 52.058594 59.851562 52.3125 59.902344 52.554688 60.003906 C 52.796875 60.101562 53.011719 60.246094 53.199219 60.429688 L 55.679688 62.914062 L 60.707031 57.878906 C 60.890625 57.691406 61.105469 57.546875 61.351562 57.449219 C 61.59375 57.347656 61.847656 57.296875 62.113281 57.296875 C 62.375 57.296875 62.628906 57.347656 62.871094 57.449219 C 63.117188 57.546875 63.332031 57.691406 63.515625 57.878906 C 63.703125 58.066406 63.847656 58.28125 63.949219 58.523438 C 64.046875 58.769531 64.097656 59.023438 64.097656 59.285156 C 64.097656 59.550781 64.046875 59.804688 63.949219 60.046875 C 63.847656 60.292969 63.703125 60.507812 63.515625 60.695312 L 57.085938 67.136719 C 56.699219 67.527344 56.230469 67.71875 55.679688 67.71875 Z M 55.679688 67.71875 " fill-opacity="1" fill-rule="nonzero"/></svg>