<svg xmlns="http://www.w3.org/2000/svg" xmlns:xlink="http://www.w3.org/1999/xlink" width="152" zoomAndPan="magnify" viewBox="0 0 114 78.749999" height="105" preserveAspectRatio="xMidYMid meet" version="1.0"><defs><clipPath id="3767a131b6"><path d="M 0.179688 68.003906 L 113.820312 68.003906 L 113.820312 74.578125 L 0.179688 74.578125 Z M 0.179688 68.003906 " clip-rule="nonzero"/></clipPath><clipPath id="e1b3a20615"><path d="M 8 3.597656 L 106 3.597656 L 106 66 L 8 66 Z M 8 3.597656 " clip-rule="nonzero"/></clipPath></defs><g clip-path="url(#3767a131b6)"><path fill="#f92b2b" d="M 113.820312 69.648438 L 113.820312 69.691406 C 113.820312 71.195312 113.121094 72.613281 111.925781 73.535156 L 111.894531 73.558594 C 111.039062 74.21875 109.988281 74.578125 108.90625 74.578125 L 5.09375 74.578125 C 4.011719 74.578125 2.960938 74.21875 2.105469 73.558594 L 2.074219 73.535156 C 0.878906 72.613281 0.179688 71.195312 0.179688 69.691406 L 0.179688 69.648438 C 0.179688 68.757812 0.90625 68.039062 1.800781 68.039062 L 50.851562 68.039062 C 51.238281 68.039062 51.597656 68.238281 51.796875 68.570312 L 51.804688 68.578125 C 52.003906 68.910156 52.363281 69.109375 52.75 69.109375 L 61.25 69.109375 C 61.636719 69.109375 61.996094 68.910156 62.195312 68.578125 L 62.203125 68.570312 C 62.402344 68.238281 62.761719 68.039062 63.148438 68.039062 L 112.199219 68.039062 C 113.09375 68.039062 113.820312 68.757812 113.820312 69.648438 " fill-opacity="1" fill-rule="nonzero"/></g><g clip-path="url(#e1b3a20615)"><path fill="#282828" d="M 105.460938 6.871094 L 105.460938 65.5 L 8.539062 65.5 L 8.539062 6.871094 C 8.539062 5.085938 9.992188 3.640625 11.78125 3.640625 L 102.21875 3.640625 C 104.007812 3.640625 105.460938 5.085938 105.460938 6.871094 " fill-opacity="1" fill-rule="nonzero"/></g><path fill="#efefef" d="M 12.917969 61.140625 L 12.917969 8 L 101.082031 8 L 101.082031 61.140625 L 12.917969 61.140625 " fill-opacity="1" fill-rule="nonzero"/><path fill="#f92b2b" d="M 49.058594 27.054688 L 43.035156 27.054688 L 42.289062 24.285156 L 48.570312 24.285156 Z M 49.355469 28.734375 L 49.84375 31.503906 L 44.230469 31.503906 L 43.484375 28.734375 Z M 56.226562 24.285156 L 56.226562 27.054688 L 50.769531 27.054688 L 50.28125 24.285156 Z M 45.429688 35.953125 L 44.683594 33.183594 L 50.140625 33.183594 L 50.628906 35.953125 Z M 56.226562 28.734375 L 56.226562 31.503906 L 51.554688 31.503906 L 51.066406 28.734375 Z M 56.226562 33.183594 L 56.226562 35.953125 L 52.339844 35.953125 L 51.851562 33.183594 Z M 57.914062 27.054688 L 57.914062 24.285156 L 63.859375 24.285156 L 63.371094 27.054688 Z M 57.914062 31.503906 L 57.914062 28.734375 L 63.074219 28.734375 L 62.585938 31.503906 Z M 57.914062 33.183594 L 62.289062 33.183594 L 61.800781 35.953125 L 57.914062 35.953125 Z M 69.457031 33.183594 L 68.710938 35.953125 L 63.511719 35.953125 L 64 33.183594 Z M 70.652344 28.734375 L 69.910156 31.503906 L 64.296875 31.503906 L 64.785156 28.734375 Z M 71.851562 24.285156 L 71.105469 27.054688 L 65.082031 27.054688 L 65.570312 24.285156 Z M 73.425781 23.082031 C 73.195312 22.78125 72.839844 22.605469 72.445312 22.605469 L 41.839844 22.605469 L 40.167969 16.390625 C 40.027344 15.882812 39.605469 15.488281 39.085938 15.386719 L 33.332031 14.273438 C 33.277344 14.261719 33.222656 14.257812 33.171875 14.257812 C 32.773438 14.257812 32.425781 14.542969 32.347656 14.945312 C 32.304688 15.164062 32.351562 15.386719 32.476562 15.570312 C 32.601562 15.753906 32.789062 15.878906 33.007812 15.921875 L 38.582031 17.003906 L 45.632812 43.207031 L 45.808594 43.855469 C 45.9375 44.324219 46.367188 44.652344 46.855469 44.652344 L 67.339844 44.652344 C 67.800781 44.652344 68.175781 44.28125 68.175781 43.808594 C 68.175781 43.347656 67.800781 42.972656 67.339844 42.972656 L 47.316406 42.972656 L 45.878906 37.632812 L 68.515625 37.632812 C 69.394531 37.632812 70.164062 37.046875 70.394531 36.1875 L 73.636719 24.136719 C 73.738281 23.765625 73.660156 23.382812 73.425781 23.082031 " fill-opacity="1" fill-rule="nonzero"/><path fill="#f92b2b" d="M 44.886719 49.34375 C 44.886719 48.21875 45.804688 47.300781 46.9375 47.300781 C 48.070312 47.300781 48.988281 48.21875 48.988281 49.34375 C 48.988281 50.46875 48.070312 51.386719 46.9375 51.386719 C 45.804688 51.386719 44.886719 50.46875 44.886719 49.34375 Z M 46.9375 45.371094 C 44.738281 45.371094 42.949219 47.152344 42.949219 49.34375 C 42.949219 51.535156 44.738281 53.316406 46.9375 53.316406 C 49.136719 53.316406 50.925781 51.535156 50.925781 49.34375 C 50.925781 47.152344 49.136719 45.371094 46.9375 45.371094 " fill-opacity="1" fill-rule="nonzero"/><path fill="#f92b2b" d="M 67.226562 51.386719 C 66.097656 51.386719 65.175781 50.46875 65.175781 49.34375 C 65.175781 48.21875 66.097656 47.300781 67.226562 47.300781 C 68.359375 47.300781 69.28125 48.21875 69.28125 49.34375 C 69.28125 50.46875 68.359375 51.386719 67.226562 51.386719 Z M 67.226562 45.371094 C 65.027344 45.371094 63.238281 47.152344 63.238281 49.34375 C 63.238281 51.535156 65.027344 53.316406 67.226562 53.316406 C 69.429688 53.316406 71.21875 51.535156 71.21875 49.34375 C 71.21875 47.152344 69.429688 45.371094 67.226562 45.371094 " fill-opacity="1" fill-rule="nonzero"/></svg>