<svg xmlns="http://www.w3.org/2000/svg" xmlns:xlink="http://www.w3.org/1999/xlink" width="152" zoomAndPan="magnify" viewBox="0 0 114 78.749999" height="105" preserveAspectRatio="xMidYMid meet" version="1.0"><defs><clipPath id="4d816376a1"><path d="M 18.429688 1.296875 L 95.4375 1.296875 L 95.4375 78.304688 L 18.429688 78.304688 Z M 18.429688 1.296875 " clip-rule="nonzero"/></clipPath><clipPath id="ea9ef124f2"><path d="M 18.429688 29 L 46 29 L 46 77 L 18.429688 77 Z M 18.429688 29 " clip-rule="nonzero"/></clipPath><clipPath id="6f6250283f"><path d="M 23 1.296875 L 47 1.296875 L 47 26 L 23 26 Z M 23 1.296875 " clip-rule="nonzero"/></clipPath><clipPath id="3bfc85d017"><path d="M 87 12 L 95.4375 12 L 95.4375 35 L 87 35 Z M 87 12 " clip-rule="nonzero"/></clipPath></defs><g clip-path="url(#4d816376a1)"><path fill="#ff757c" d="M 95.425781 39.832031 C 95.425781 41.09375 95.363281 42.351562 95.238281 43.605469 C 95.117188 44.859375 94.929688 46.101562 94.683594 47.339844 C 94.4375 48.574219 94.132812 49.792969 93.765625 51 C 93.402344 52.207031 92.976562 53.390625 92.496094 54.554688 C 92.011719 55.71875 91.472656 56.855469 90.878906 57.96875 C 90.285156 59.078125 89.636719 60.15625 88.9375 61.203125 C 88.238281 62.253906 87.488281 63.261719 86.6875 64.238281 C 85.886719 65.210938 85.042969 66.144531 84.148438 67.035156 C 83.257812 67.925781 82.324219 68.769531 81.351562 69.570312 C 80.375 70.367188 79.363281 71.117188 78.316406 71.816406 C 77.265625 72.519531 76.1875 73.164062 75.074219 73.757812 C 73.964844 74.351562 72.824219 74.890625 71.660156 75.375 C 70.496094 75.855469 69.308594 76.277344 68.101562 76.644531 C 66.898438 77.011719 65.675781 77.316406 64.4375 77.5625 C 63.203125 77.808594 61.957031 77.992188 60.703125 78.117188 C 59.445312 78.238281 58.1875 78.300781 56.929688 78.300781 C 55.667969 78.300781 54.410156 78.238281 53.15625 78.117188 C 51.898438 77.992188 50.652344 77.808594 49.417969 77.5625 C 48.179688 77.316406 46.960938 77.011719 45.753906 76.644531 C 44.546875 76.277344 43.359375 75.855469 42.195312 75.375 C 41.03125 74.890625 39.890625 74.351562 38.78125 73.757812 C 37.667969 73.164062 36.589844 72.519531 35.539062 71.816406 C 34.492188 71.117188 33.480469 70.367188 32.503906 69.570312 C 31.53125 68.769531 30.597656 67.925781 29.707031 67.035156 C 28.816406 66.144531 27.96875 65.210938 27.167969 64.238281 C 26.371094 63.261719 25.617188 62.253906 24.917969 61.203125 C 24.21875 60.15625 23.570312 59.078125 22.976562 57.96875 C 22.382812 56.855469 21.84375 55.71875 21.359375 54.554688 C 20.878906 53.390625 20.453125 52.207031 20.089844 51 C 19.722656 49.792969 19.417969 48.574219 19.171875 47.339844 C 18.925781 46.101562 18.738281 44.859375 18.617188 43.605469 C 18.492188 42.351562 18.429688 41.09375 18.429688 39.832031 C 18.429688 38.574219 18.492188 37.316406 18.617188 36.0625 C 18.738281 34.808594 18.925781 33.5625 19.171875 32.328125 C 19.417969 31.09375 19.722656 29.871094 20.089844 28.667969 C 20.453125 27.460938 20.878906 26.277344 21.359375 25.113281 C 21.84375 23.949219 22.382812 22.8125 22.976562 21.699219 C 23.570312 20.589844 24.21875 19.507812 24.917969 18.460938 C 25.617188 17.414062 26.371094 16.402344 27.167969 15.429688 C 27.96875 14.457031 28.816406 13.523438 29.707031 12.632812 C 30.597656 11.742188 31.53125 10.894531 32.503906 10.097656 C 33.480469 9.296875 34.492188 8.546875 35.539062 7.847656 C 36.589844 7.148438 37.667969 6.5 38.78125 5.90625 C 39.890625 5.3125 41.03125 4.777344 42.195312 4.292969 C 43.359375 3.8125 44.546875 3.386719 45.753906 3.023438 C 46.960938 2.65625 48.179688 2.351562 49.417969 2.105469 C 50.652344 1.859375 51.898438 1.675781 53.15625 1.550781 C 54.410156 1.425781 55.667969 1.363281 56.929688 1.363281 C 58.1875 1.363281 59.445312 1.425781 60.703125 1.550781 C 61.957031 1.675781 63.203125 1.859375 64.4375 2.105469 C 65.675781 2.351562 66.898438 2.65625 68.101562 3.023438 C 69.308594 3.386719 70.496094 3.8125 71.660156 4.292969 C 72.824219 4.777344 73.964844 5.3125 75.074219 5.90625 C 76.1875 6.5 77.265625 7.148438 78.316406 7.847656 C 79.363281 8.546875 80.375 9.296875 81.351562 10.097656 C 82.324219 10.894531 83.257812 11.742188 84.148438 12.632812 C 85.042969 13.523438 85.886719 14.457031 86.6875 15.429688 C 87.488281 16.402344 88.238281 17.414062 88.9375 18.460938 C 89.636719 19.507812 90.285156 20.589844 90.878906 21.699219 C 91.472656 22.8125 92.011719 23.949219 92.496094 25.113281 C 92.976562 26.277344 93.402344 27.460938 93.765625 28.667969 C 94.132812 29.871094 94.4375 31.09375 94.683594 32.328125 C 94.929688 33.5625 95.117188 34.808594 95.238281 36.0625 C 95.363281 37.316406 95.425781 38.574219 95.425781 39.832031 Z M 95.425781 39.832031 " fill-opacity="1" fill-rule="nonzero"/></g><path fill="#ffbb1c" d="M 52.566406 22.667969 L 84.875 14.796875 L 84.875 14.335938 C 84.875 13.886719 85.242188 13.523438 85.691406 13.523438 C 86.140625 13.527344 86.503906 13.894531 86.503906 14.339844 L 86.457031 34.390625 C 86.453125 34.839844 86.085938 35.207031 85.636719 35.203125 C 85.191406 35.203125 84.824219 34.835938 84.824219 34.390625 L 84.828125 33.96875 L 78.464844 32.386719 C 77.957031 34.152344 77.289062 36.324219 76.9375 36.761719 C 76.109375 37.792969 74.554688 37.433594 74.550781 37.429688 L 74.507812 37.421875 C 74.476562 37.414062 62.402344 34.609375 60.972656 33.730469 C 59.175781 32.621094 59.699219 30.957031 59.734375 30.847656 L 60.417969 27.898438 L 52.558594 25.941406 L 52.558594 25.976562 C 52.558594 26.234375 52.347656 26.445312 52.085938 26.445312 C 51.828125 26.445312 51.613281 26.234375 51.617188 25.972656 L 51.625 22.609375 C 51.625 22.351562 51.835938 22.136719 52.097656 22.140625 C 52.355469 22.140625 52.566406 22.351562 52.566406 22.609375 Z M 76.96875 32.015625 L 61.925781 28.273438 L 61.238281 31.230469 L 61.230469 31.269531 C 61.230469 31.269531 60.992188 31.921875 61.785156 32.410156 C 62.972656 33.140625 74.113281 35.738281 74.816406 35.902344 C 74.894531 35.917969 75.539062 36.03125 75.730469 35.792969 C 75.964844 35.503906 76.519531 33.625 76.96875 32.015625 Z M 76.96875 32.015625 " fill-opacity="1" fill-rule="evenodd"/><path fill="#fed298" d="M 44 5.671875 L 46.105469 7.863281 L 47.296875 12.976562 C 47.308594 13.039062 46.304688 14.523438 46.304688 14.523438 L 50.308594 19.324219 L 49.90625 20.246094 L 47.199219 20.871094 L 47.605469 22.574219 L 45.191406 23.921875 L 46.921875 25.789062 L 46.097656 27.269531 L 45.839844 28.8125 C 45.957031 30.164062 45.382812 30.347656 44.304688 30.449219 L 39.511719 28.804688 L 37.929688 34.0625 L 29.535156 31.78125 L 27.96875 31.472656 L 28.363281 25.792969 L 25.707031 14.503906 C 25.707031 14.503906 26.78125 4.539062 44 5.671875 Z M 44 5.671875 " fill-opacity="1" fill-rule="evenodd"/><g clip-path="url(#ea9ef124f2)"><path fill="#15bdb2" d="M 36.898438 35.851562 C 46.347656 47.277344 44.933594 60.898438 45.289062 76.507812 C 30.398438 71.796875 19.429688 58.28125 18.496094 42.078125 C 18.550781 41.121094 18.644531 40.324219 18.777344 39.734375 C 20.027344 34.179688 23.601562 30.511719 26.125 29.269531 Z M 36.898438 35.851562 " fill-opacity="1" fill-rule="evenodd"/></g><path fill="#fed298" d="M 62.882812 45.507812 L 64.382812 41.453125 C 64.382812 41.453125 62.128906 37.972656 62.089844 37.820312 C 62.050781 37.671875 61.894531 34.382812 61.894531 34.382812 L 63.199219 34.722656 L 63.460938 33.210938 L 63.527344 32.445312 L 63.761719 31.476562 C 63.761719 31.476562 64.78125 30.976562 65.445312 31.542969 C 65.59375 31.671875 65.691406 32.292969 65.820312 32.496094 L 66.574219 31.691406 L 67.902344 31.9375 L 68.46875 32.828125 L 69.378906 32.277344 L 70.4375 32.496094 L 71.066406 33.441406 L 72.246094 33.089844 L 73.171875 33.425781 L 73.375 34.285156 L 72.320312 40.214844 L 70.796875 42.683594 L 68.933594 48.472656 Z M 62.882812 45.507812 " fill-opacity="1" fill-rule="evenodd"/><path fill="#21d0c3" d="M 36.523438 39.628906 L 57.289062 56.964844 L 61.882812 44.246094 L 71.160156 47.695312 L 62.320312 67.246094 C 59.894531 68.992188 58.304688 68.902344 55.4375 68.082031 L 29.914062 55.066406 C 18.523438 49.234375 21.953125 32.976562 36.523438 39.628906 Z M 36.523438 39.628906 " fill-opacity="1" fill-rule="evenodd"/><path fill="#ffffff" d="M 62.304688 44.480469 L 63.023438 42.558594 L 70.714844 45.578125 L 70.257812 47.640625 Z M 62.304688 44.480469 " fill-opacity="1" fill-rule="evenodd"/><g clip-path="url(#6f6250283f)"><path fill="#666666" d="M 46.050781 1.367188 C 30.375 1.300781 27.371094 3.40625 25.5625 6.058594 C 25.257812 6.5 22.214844 14.199219 25.527344 20.449219 L 28.363281 25.792969 L 29.433594 25.464844 L 30.746094 22.125 L 29.210938 17.011719 C 29.144531 14.445312 31.722656 13.625 32.640625 15.554688 C 33.5625 17.488281 33.253906 18.164062 33.253906 18.164062 L 34.660156 17.929688 L 34.53125 12.582031 L 39.015625 10.417969 L 40.464844 7.492188 L 46.105469 7.863281 Z M 46.050781 1.367188 " fill-opacity="1" fill-rule="evenodd"/></g><path fill="#ffffff" d="M 27.652344 26.128906 L 38.382812 32.074219 L 38.761719 38.058594 L 25.625 29.539062 Z M 27.652344 26.128906 " fill-opacity="1" fill-rule="evenodd"/><g clip-path="url(#3bfc85d017)"><path fill="#ffffff" d="M 88.332031 23.722656 L 95.414062 23.398438 L 95.4375 23.925781 L 88.355469 24.253906 Z M 87.917969 17.175781 L 93.042969 12.832031 L 93.386719 13.238281 L 88.261719 17.578125 Z M 88.246094 20.425781 L 91.433594 19.199219 L 91.625 19.691406 L 88.4375 20.921875 Z M 88.261719 30.070312 L 93.386719 34.410156 L 93.042969 34.816406 L 87.917969 30.476562 Z M 88.4375 26.726562 L 91.90625 28.066406 L 91.714844 28.5625 L 88.246094 27.222656 Z M 88.4375 26.726562 " fill-opacity="1" fill-rule="nonzero"/></g></svg>